G04 #@! TF.GenerationSoftware,KiCad,Pcbnew,5.1.7-a382d34a8~87~ubuntu16.04.1*
G04 #@! TF.CreationDate,2020-10-08T01:02:59+00:00*
G04 #@! TF.ProjectId,neotron-32,6e656f74-726f-46e2-9d33-322e6b696361,[Uncontrolled]*
G04 #@! TF.SameCoordinates,Original*
G04 #@! TF.FileFunction,Soldermask,Top*
G04 #@! TF.FilePolarity,Negative*
%FSLAX46Y46*%
G04 Gerber Fmt 4.6, Leading zero omitted, Abs format (unit mm)*
G04 Created by KiCad (PCBNEW 5.1.7-a382d34a8~87~ubuntu16.04.1) date 2020-10-08 01:02:59*
%MOMM*%
%LPD*%
G01*
G04 APERTURE LIST*
%ADD10C,1.752600*%
%ADD11O,1.650800X1.650800*%
%ADD12C,1.650800*%
%ADD13C,2.050800*%
%ADD14C,3.040800*%
%ADD15O,1.750800X1.750800*%
%ADD16O,1.778000X1.778000*%
%ADD17C,3.250800*%
%ADD18C,1.550800*%
%ADD19C,1.850800*%
%ADD20C,3.050800*%
%ADD21C,2.150800*%
%ADD22C,4.050800*%
%ADD23C,1.050800*%
%ADD24O,2.050800X1.955800*%
%ADD25C,3.550801*%
%ADD26C,1.750800*%
%ADD27O,1.850800X2.850800*%
%ADD28O,2.450800X2.450800*%
%ADD29C,0.350000*%
G04 APERTURE END LIST*
G04 #@! TO.C,J501*
G36*
G01*
X237226000Y-130980400D02*
X236376000Y-130980400D01*
G75*
G02*
X236350600Y-130955000I0J25400D01*
G01*
X236350600Y-130005000D01*
G75*
G02*
X236376000Y-129979600I25400J0D01*
G01*
X237226000Y-129979600D01*
G75*
G02*
X237251400Y-130005000I0J-25400D01*
G01*
X237251400Y-130955000D01*
G75*
G02*
X237226000Y-130980400I-25400J0D01*
G01*
G37*
G36*
G01*
X236126000Y-130080400D02*
X235526000Y-130080400D01*
G75*
G02*
X235500600Y-130055000I0J25400D01*
G01*
X235500600Y-129055000D01*
G75*
G02*
X235526000Y-129029600I25400J0D01*
G01*
X236126000Y-129029600D01*
G75*
G02*
X236151400Y-129055000I0J-25400D01*
G01*
X236151400Y-130055000D01*
G75*
G02*
X236126000Y-130080400I-25400J0D01*
G01*
G37*
G36*
G01*
X235301001Y-130505400D02*
X233850999Y-130505400D01*
G75*
G02*
X233825600Y-130480001I0J25399D01*
G01*
X233825600Y-129079999D01*
G75*
G02*
X233850999Y-129054600I25399J0D01*
G01*
X235301001Y-129054600D01*
G75*
G02*
X235326400Y-129079999I0J-25399D01*
G01*
X235326400Y-130480001D01*
G75*
G02*
X235301001Y-130505400I-25399J0D01*
G01*
G37*
G36*
G01*
X237226000Y-140880400D02*
X233436000Y-140880400D01*
G75*
G02*
X233410600Y-140855000I0J25400D01*
G01*
X233410600Y-139655000D01*
G75*
G02*
X233436000Y-139629600I25400J0D01*
G01*
X237226000Y-139629600D01*
G75*
G02*
X237251400Y-139655000I0J-25400D01*
G01*
X237251400Y-140855000D01*
G75*
G02*
X237226000Y-140880400I-25400J0D01*
G01*
G37*
G36*
G01*
X233476000Y-131730400D02*
X232226000Y-131730400D01*
G75*
G02*
X232200600Y-131705000I0J25400D01*
G01*
X232200600Y-131105000D01*
G75*
G02*
X232226000Y-131079600I25400J0D01*
G01*
X233476000Y-131079600D01*
G75*
G02*
X233501400Y-131105000I0J-25400D01*
G01*
X233501400Y-131705000D01*
G75*
G02*
X233476000Y-131730400I-25400J0D01*
G01*
G37*
G36*
G01*
X233476000Y-132830400D02*
X232226000Y-132830400D01*
G75*
G02*
X232200600Y-132805000I0J25400D01*
G01*
X232200600Y-132205000D01*
G75*
G02*
X232226000Y-132179600I25400J0D01*
G01*
X233476000Y-132179600D01*
G75*
G02*
X233501400Y-132205000I0J-25400D01*
G01*
X233501400Y-132805000D01*
G75*
G02*
X233476000Y-132830400I-25400J0D01*
G01*
G37*
G36*
G01*
X233476000Y-133930400D02*
X232226000Y-133930400D01*
G75*
G02*
X232200600Y-133905000I0J25400D01*
G01*
X232200600Y-133305000D01*
G75*
G02*
X232226000Y-133279600I25400J0D01*
G01*
X233476000Y-133279600D01*
G75*
G02*
X233501400Y-133305000I0J-25400D01*
G01*
X233501400Y-133905000D01*
G75*
G02*
X233476000Y-133930400I-25400J0D01*
G01*
G37*
G36*
G01*
X233476000Y-135030400D02*
X232226000Y-135030400D01*
G75*
G02*
X232200600Y-135005000I0J25400D01*
G01*
X232200600Y-134405000D01*
G75*
G02*
X232226000Y-134379600I25400J0D01*
G01*
X233476000Y-134379600D01*
G75*
G02*
X233501400Y-134405000I0J-25400D01*
G01*
X233501400Y-135005000D01*
G75*
G02*
X233476000Y-135030400I-25400J0D01*
G01*
G37*
G36*
G01*
X233476000Y-136130400D02*
X232226000Y-136130400D01*
G75*
G02*
X232200600Y-136105000I0J25400D01*
G01*
X232200600Y-135505000D01*
G75*
G02*
X232226000Y-135479600I25400J0D01*
G01*
X233476000Y-135479600D01*
G75*
G02*
X233501400Y-135505000I0J-25400D01*
G01*
X233501400Y-136105000D01*
G75*
G02*
X233476000Y-136130400I-25400J0D01*
G01*
G37*
G36*
G01*
X233476000Y-137230400D02*
X232226000Y-137230400D01*
G75*
G02*
X232200600Y-137205000I0J25400D01*
G01*
X232200600Y-136605000D01*
G75*
G02*
X232226000Y-136579600I25400J0D01*
G01*
X233476000Y-136579600D01*
G75*
G02*
X233501400Y-136605000I0J-25400D01*
G01*
X233501400Y-137205000D01*
G75*
G02*
X233476000Y-137230400I-25400J0D01*
G01*
G37*
G36*
G01*
X233476000Y-138330400D02*
X232226000Y-138330400D01*
G75*
G02*
X232200600Y-138305000I0J25400D01*
G01*
X232200600Y-137705000D01*
G75*
G02*
X232226000Y-137679600I25400J0D01*
G01*
X233476000Y-137679600D01*
G75*
G02*
X233501400Y-137705000I0J-25400D01*
G01*
X233501400Y-138305000D01*
G75*
G02*
X233476000Y-138330400I-25400J0D01*
G01*
G37*
G36*
G01*
X233476000Y-139430400D02*
X232226000Y-139430400D01*
G75*
G02*
X232200600Y-139405000I0J25400D01*
G01*
X232200600Y-138805000D01*
G75*
G02*
X232226000Y-138779600I25400J0D01*
G01*
X233476000Y-138779600D01*
G75*
G02*
X233501400Y-138805000I0J-25400D01*
G01*
X233501400Y-139405000D01*
G75*
G02*
X233476000Y-139430400I-25400J0D01*
G01*
G37*
G04 #@! TD*
D10*
G04 #@! TO.C,U101*
X185420000Y-31750000D03*
X182880000Y-31750000D03*
X180340000Y-31750000D03*
X177800000Y-31750000D03*
X175260000Y-31750000D03*
X172720000Y-31750000D03*
X170180000Y-31750000D03*
X167640000Y-31750000D03*
X165100000Y-31750000D03*
X162560000Y-31750000D03*
X185420000Y-34290000D03*
X182880000Y-34290000D03*
X180340000Y-34290000D03*
X177800000Y-34290000D03*
X175260000Y-34290000D03*
X172720000Y-34290000D03*
X170180000Y-34290000D03*
X167640000Y-34290000D03*
X165100000Y-34290000D03*
X162560000Y-34290000D03*
X162560000Y-74930000D03*
X170180000Y-74930000D03*
X175260000Y-74930000D03*
X180340000Y-74930000D03*
X182880000Y-74930000D03*
X185420000Y-74930000D03*
X177800000Y-74930000D03*
X172720000Y-74930000D03*
X165100000Y-74930000D03*
X167640000Y-74930000D03*
X185420000Y-77470000D03*
X182880000Y-77470000D03*
X180340000Y-77470000D03*
X177800000Y-77470000D03*
X175260000Y-77470000D03*
X172720000Y-77470000D03*
X170180000Y-77470000D03*
X167640000Y-77470000D03*
X165100000Y-77470000D03*
X162560000Y-77470000D03*
G04 #@! TD*
D11*
G04 #@! TO.C,R203*
X92710000Y-60198000D03*
D12*
X92710000Y-70358000D03*
G04 #@! TD*
G04 #@! TO.C,C303*
X209383000Y-22225000D03*
G36*
G01*
X206057600Y-23025000D02*
X206057600Y-21425000D01*
G75*
G02*
X206083000Y-21399600I25400J0D01*
G01*
X207683000Y-21399600D01*
G75*
G02*
X207708400Y-21425000I0J-25400D01*
G01*
X207708400Y-23025000D01*
G75*
G02*
X207683000Y-23050400I-25400J0D01*
G01*
X206083000Y-23050400D01*
G75*
G02*
X206057600Y-23025000I0J25400D01*
G01*
G37*
G04 #@! TD*
D13*
G04 #@! TO.C,F401*
X90805000Y-24130000D03*
X90795000Y-29210000D03*
G04 #@! TD*
D14*
G04 #@! TO.C,J704*
X87000000Y-155340000D03*
X87000000Y-141840000D03*
D12*
X89500000Y-151990000D03*
X87000000Y-151990000D03*
X87000000Y-147290000D03*
X89500000Y-145190000D03*
X87000000Y-149890000D03*
X87000000Y-145190000D03*
X80000000Y-151990000D03*
X80000000Y-147290000D03*
X80000000Y-145190000D03*
X80000000Y-149890000D03*
D14*
X77000000Y-141840000D03*
X76200000Y-148590000D03*
X77000000Y-155340000D03*
D12*
X82500000Y-151990000D03*
X82500000Y-145190000D03*
G04 #@! TD*
D15*
G04 #@! TO.C,J103*
X194310000Y-96520000D03*
X194310000Y-93980000D03*
X191770000Y-96520000D03*
X191770000Y-93980000D03*
X189230000Y-96520000D03*
X189230000Y-93980000D03*
X186690000Y-96520000D03*
G36*
G01*
X187540000Y-94855400D02*
X185840000Y-94855400D01*
G75*
G02*
X185814600Y-94830000I0J25400D01*
G01*
X185814600Y-93130000D01*
G75*
G02*
X185840000Y-93104600I25400J0D01*
G01*
X187540000Y-93104600D01*
G75*
G02*
X187565400Y-93130000I0J-25400D01*
G01*
X187565400Y-94830000D01*
G75*
G02*
X187540000Y-94855400I-25400J0D01*
G01*
G37*
G04 #@! TD*
D16*
G04 #@! TO.C,J601*
X101600000Y-96520000D03*
X99060000Y-96520000D03*
X101600000Y-93980000D03*
X99060000Y-93980000D03*
X101600000Y-91440000D03*
X99060000Y-91440000D03*
X101600000Y-88900000D03*
X99060000Y-88900000D03*
X101600000Y-86360000D03*
X99060000Y-86360000D03*
X101600000Y-83820000D03*
X99060000Y-83820000D03*
X101600000Y-81280000D03*
X99060000Y-81280000D03*
X101600000Y-78740000D03*
X99060000Y-78740000D03*
X101600000Y-76200000D03*
X99060000Y-76200000D03*
X101600000Y-73660000D03*
X99060000Y-73660000D03*
X101600000Y-71120000D03*
X99060000Y-71120000D03*
X101600000Y-68580000D03*
X99060000Y-68580000D03*
X101600000Y-66040000D03*
G36*
G01*
X98171000Y-66903600D02*
X98171000Y-65176400D01*
G75*
G02*
X98196400Y-65151000I25400J0D01*
G01*
X99923600Y-65151000D01*
G75*
G02*
X99949000Y-65176400I0J-25400D01*
G01*
X99949000Y-66903600D01*
G75*
G02*
X99923600Y-66929000I-25400J0D01*
G01*
X98196400Y-66929000D01*
G75*
G02*
X98171000Y-66903600I0J25400D01*
G01*
G37*
G04 #@! TD*
D11*
G04 #@! TO.C,R102*
X212725000Y-119380000D03*
D12*
X202565000Y-119380000D03*
G04 #@! TD*
D17*
G04 #@! TO.C,H106*
X171450000Y-134620000D03*
G04 #@! TD*
G04 #@! TO.C,H105*
X149860000Y-134620000D03*
G04 #@! TD*
D18*
G04 #@! TO.C,SW402*
X223140000Y-20995000D03*
X220640000Y-20995000D03*
X218140000Y-20995000D03*
X223140000Y-23495000D03*
X220640000Y-23495000D03*
X218140000Y-23495000D03*
G04 #@! TD*
D11*
G04 #@! TO.C,R403*
X212725000Y-45085000D03*
D12*
X202565000Y-45085000D03*
G04 #@! TD*
D19*
G04 #@! TO.C,D402*
X234950000Y-52070000D03*
G36*
G01*
X234050000Y-48604600D02*
X235850000Y-48604600D01*
G75*
G02*
X235875400Y-48630000I0J-25400D01*
G01*
X235875400Y-50430000D01*
G75*
G02*
X235850000Y-50455400I-25400J0D01*
G01*
X234050000Y-50455400D01*
G75*
G02*
X234024600Y-50430000I0J25400D01*
G01*
X234024600Y-48630000D01*
G75*
G02*
X234050000Y-48604600I25400J0D01*
G01*
G37*
G04 #@! TD*
D18*
G04 #@! TO.C,SW401*
X85510000Y-50800000D03*
X88010000Y-50800000D03*
X90510000Y-50800000D03*
X85510000Y-48300000D03*
X88010000Y-48300000D03*
X90510000Y-48300000D03*
G04 #@! TD*
G04 #@! TO.C,BT801*
G36*
G01*
X106450000Y-129284600D02*
X109450000Y-129284600D01*
G75*
G02*
X109475400Y-129310000I0J-25400D01*
G01*
X109475400Y-132310000D01*
G75*
G02*
X109450000Y-132335400I-25400J0D01*
G01*
X106450000Y-132335400D01*
G75*
G02*
X106424600Y-132310000I0J25400D01*
G01*
X106424600Y-129310000D01*
G75*
G02*
X106450000Y-129284600I25400J0D01*
G01*
G37*
D20*
X107950000Y-151300000D03*
G04 #@! TD*
D16*
G04 #@! TO.C,J1001*
X111760000Y-120650000D03*
X109220000Y-120650000D03*
X111760000Y-118110000D03*
X109220000Y-118110000D03*
X111760000Y-115570000D03*
X109220000Y-115570000D03*
X111760000Y-113030000D03*
X109220000Y-113030000D03*
X111760000Y-110490000D03*
G36*
G01*
X108331000Y-111353600D02*
X108331000Y-109626400D01*
G75*
G02*
X108356400Y-109601000I25400J0D01*
G01*
X110083600Y-109601000D01*
G75*
G02*
X110109000Y-109626400I0J-25400D01*
G01*
X110109000Y-111353600D01*
G75*
G02*
X110083600Y-111379000I-25400J0D01*
G01*
X108356400Y-111379000D01*
G75*
G02*
X108331000Y-111353600I0J25400D01*
G01*
G37*
G04 #@! TD*
D21*
G04 #@! TO.C,J202*
X73820000Y-81915000D03*
X73820000Y-91915000D03*
X86320000Y-91915000D03*
X86320000Y-81915000D03*
X83820000Y-86915000D03*
X83820000Y-79415000D03*
X83820000Y-94415000D03*
G04 #@! TD*
G04 #@! TO.C,J201*
X73820000Y-61755000D03*
X73820000Y-71755000D03*
X86320000Y-71755000D03*
X86320000Y-61755000D03*
X83820000Y-66755000D03*
X83820000Y-59255000D03*
X83820000Y-74255000D03*
G04 #@! TD*
D22*
G04 #@! TO.C,J901*
X82550000Y-127635000D03*
X82550000Y-102635000D03*
D12*
X80640000Y-110290000D03*
X80640000Y-112580000D03*
X80640000Y-114870000D03*
X80640000Y-117160000D03*
X80640000Y-119450000D03*
X82620000Y-111435000D03*
X82620000Y-113725000D03*
X82620000Y-116015000D03*
X82620000Y-118305000D03*
X82620000Y-120595000D03*
X84600000Y-110290000D03*
X84600000Y-112580000D03*
X84600000Y-114870000D03*
X84600000Y-117160000D03*
G36*
G01*
X83800000Y-118624600D02*
X85400000Y-118624600D01*
G75*
G02*
X85425400Y-118650000I0J-25400D01*
G01*
X85425400Y-120250000D01*
G75*
G02*
X85400000Y-120275400I-25400J0D01*
G01*
X83800000Y-120275400D01*
G75*
G02*
X83774600Y-120250000I0J25400D01*
G01*
X83774600Y-118650000D01*
G75*
G02*
X83800000Y-118624600I25400J0D01*
G01*
G37*
G04 #@! TD*
D22*
G04 #@! TO.C,J702*
X230180000Y-58820000D03*
X230180000Y-83820000D03*
D12*
X223820000Y-67165000D03*
X223820000Y-69935000D03*
X223820000Y-72705000D03*
X223820000Y-75475000D03*
X220980000Y-65780000D03*
X220980000Y-68550000D03*
X220980000Y-71320000D03*
X220980000Y-74090000D03*
G36*
G01*
X221780000Y-77685400D02*
X220180000Y-77685400D01*
G75*
G02*
X220154600Y-77660000I0J25400D01*
G01*
X220154600Y-76060000D01*
G75*
G02*
X220180000Y-76034600I25400J0D01*
G01*
X221780000Y-76034600D01*
G75*
G02*
X221805400Y-76060000I0J-25400D01*
G01*
X221805400Y-77660000D01*
G75*
G02*
X221780000Y-77685400I-25400J0D01*
G01*
G37*
G04 #@! TD*
G04 #@! TO.C,J703*
G36*
G01*
X221780000Y-111950400D02*
X220180000Y-111950400D01*
G75*
G02*
X220154600Y-111925000I0J25400D01*
G01*
X220154600Y-110325000D01*
G75*
G02*
X220180000Y-110299600I25400J0D01*
G01*
X221780000Y-110299600D01*
G75*
G02*
X221805400Y-110325000I0J-25400D01*
G01*
X221805400Y-111925000D01*
G75*
G02*
X221780000Y-111950400I-25400J0D01*
G01*
G37*
X220980000Y-108355000D03*
X220980000Y-105585000D03*
X220980000Y-102815000D03*
X220980000Y-100045000D03*
X223820000Y-109740000D03*
X223820000Y-106970000D03*
X223820000Y-104200000D03*
X223820000Y-101430000D03*
D22*
X230180000Y-118085000D03*
X230180000Y-93085000D03*
G04 #@! TD*
D11*
G04 #@! TO.C,U601*
X118110000Y-92710000D03*
X125730000Y-59690000D03*
X118110000Y-90170000D03*
X125730000Y-62230000D03*
X118110000Y-87630000D03*
X125730000Y-64770000D03*
X118110000Y-85090000D03*
X125730000Y-67310000D03*
X118110000Y-82550000D03*
X125730000Y-69850000D03*
X118110000Y-80010000D03*
X125730000Y-72390000D03*
X118110000Y-77470000D03*
X125730000Y-74930000D03*
X118110000Y-74930000D03*
X125730000Y-77470000D03*
X118110000Y-72390000D03*
X125730000Y-80010000D03*
X118110000Y-69850000D03*
X125730000Y-82550000D03*
X118110000Y-67310000D03*
X125730000Y-85090000D03*
X118110000Y-64770000D03*
X125730000Y-87630000D03*
X118110000Y-62230000D03*
X125730000Y-90170000D03*
X118110000Y-59690000D03*
G36*
G01*
X126555400Y-91910000D02*
X126555400Y-93510000D01*
G75*
G02*
X126530000Y-93535400I-25400J0D01*
G01*
X124930000Y-93535400D01*
G75*
G02*
X124904600Y-93510000I0J25400D01*
G01*
X124904600Y-91910000D01*
G75*
G02*
X124930000Y-91884600I25400J0D01*
G01*
X126530000Y-91884600D01*
G75*
G02*
X126555400Y-91910000I0J-25400D01*
G01*
G37*
G04 #@! TD*
D15*
G04 #@! TO.C,J101*
X143510000Y-96520000D03*
X143510000Y-93980000D03*
X146050000Y-96520000D03*
X146050000Y-93980000D03*
X148590000Y-96520000D03*
X148590000Y-93980000D03*
X151130000Y-96520000D03*
X151130000Y-93980000D03*
X153670000Y-96520000D03*
X153670000Y-93980000D03*
X156210000Y-96520000D03*
G36*
G01*
X155360000Y-93104600D02*
X157060000Y-93104600D01*
G75*
G02*
X157085400Y-93130000I0J-25400D01*
G01*
X157085400Y-94830000D01*
G75*
G02*
X157060000Y-94855400I-25400J0D01*
G01*
X155360000Y-94855400D01*
G75*
G02*
X155334600Y-94830000I0J25400D01*
G01*
X155334600Y-93130000D01*
G75*
G02*
X155360000Y-93104600I25400J0D01*
G01*
G37*
G04 #@! TD*
D11*
G04 #@! TO.C,R502*
X202565000Y-134620000D03*
D12*
X212725000Y-134620000D03*
G04 #@! TD*
D11*
G04 #@! TO.C,U701*
X204470000Y-109220000D03*
X212090000Y-76200000D03*
X204470000Y-106680000D03*
X212090000Y-78740000D03*
X204470000Y-104140000D03*
X212090000Y-81280000D03*
X204470000Y-101600000D03*
X212090000Y-83820000D03*
X204470000Y-99060000D03*
X212090000Y-86360000D03*
X204470000Y-96520000D03*
X212090000Y-88900000D03*
X204470000Y-93980000D03*
X212090000Y-91440000D03*
X204470000Y-91440000D03*
X212090000Y-93980000D03*
X204470000Y-88900000D03*
X212090000Y-96520000D03*
X204470000Y-86360000D03*
X212090000Y-99060000D03*
X204470000Y-83820000D03*
X212090000Y-101600000D03*
X204470000Y-81280000D03*
X212090000Y-104140000D03*
X204470000Y-78740000D03*
X212090000Y-106680000D03*
X204470000Y-76200000D03*
G36*
G01*
X212915400Y-108420000D02*
X212915400Y-110020000D01*
G75*
G02*
X212890000Y-110045400I-25400J0D01*
G01*
X211290000Y-110045400D01*
G75*
G02*
X211264600Y-110020000I0J25400D01*
G01*
X211264600Y-108420000D01*
G75*
G02*
X211290000Y-108394600I25400J0D01*
G01*
X212890000Y-108394600D01*
G75*
G02*
X212915400Y-108420000I0J-25400D01*
G01*
G37*
G04 #@! TD*
G04 #@! TO.C,R402*
X212725000Y-48895000D03*
D12*
X202565000Y-48895000D03*
G04 #@! TD*
D11*
G04 #@! TO.C,R906*
X89535000Y-113030000D03*
D12*
X99695000Y-113030000D03*
G04 #@! TD*
D11*
G04 #@! TO.C,R905*
X89535000Y-109220000D03*
D12*
X99695000Y-109220000D03*
G04 #@! TD*
D11*
G04 #@! TO.C,R904*
X89535000Y-128270000D03*
D12*
X99695000Y-128270000D03*
G04 #@! TD*
D11*
G04 #@! TO.C,R903*
X99695000Y-116840000D03*
D12*
X89535000Y-116840000D03*
G04 #@! TD*
D11*
G04 #@! TO.C,R902*
X99695000Y-120650000D03*
D12*
X89535000Y-120650000D03*
G04 #@! TD*
D11*
G04 #@! TO.C,R901*
X99695000Y-124460000D03*
D12*
X89535000Y-124460000D03*
G04 #@! TD*
D11*
G04 #@! TO.C,R703*
X202565000Y-60325000D03*
D12*
X212725000Y-60325000D03*
G04 #@! TD*
D11*
G04 #@! TO.C,R702*
X202565000Y-52705000D03*
D12*
X212725000Y-52705000D03*
G04 #@! TD*
D11*
G04 #@! TO.C,R701*
X202565000Y-56515000D03*
D12*
X212725000Y-56515000D03*
G04 #@! TD*
D11*
G04 #@! TO.C,R504*
X202565000Y-138430000D03*
D12*
X212725000Y-138430000D03*
G04 #@! TD*
D11*
G04 #@! TO.C,R503*
X202565000Y-130810000D03*
D12*
X212725000Y-130810000D03*
G04 #@! TD*
D11*
G04 #@! TO.C,R501*
X202565000Y-127000000D03*
D12*
X212725000Y-127000000D03*
G04 #@! TD*
D11*
G04 #@! TO.C,R401*
X90170000Y-38100000D03*
D12*
X100330000Y-38100000D03*
G04 #@! TD*
D11*
G04 #@! TO.C,R304*
X197231000Y-35560000D03*
D12*
X207391000Y-35560000D03*
G04 #@! TD*
D11*
G04 #@! TO.C,R303*
X192913000Y-24130000D03*
D12*
X203073000Y-24130000D03*
G04 #@! TD*
D11*
G04 #@! TO.C,R302*
X197231000Y-39370000D03*
D12*
X207391000Y-39370000D03*
G04 #@! TD*
D11*
G04 #@! TO.C,R301*
X192913000Y-20320000D03*
D12*
X203073000Y-20320000D03*
G04 #@! TD*
D11*
G04 #@! TO.C,R205*
X185420000Y-46990000D03*
D12*
X175260000Y-46990000D03*
G04 #@! TD*
D11*
G04 #@! TO.C,R204*
X100330000Y-52070000D03*
D12*
X100330000Y-41910000D03*
G04 #@! TD*
D11*
G04 #@! TO.C,R202*
X97282000Y-52070000D03*
D12*
X97282000Y-41910000D03*
G04 #@! TD*
D11*
G04 #@! TO.C,R201*
X105410000Y-57150000D03*
D12*
X95250000Y-57150000D03*
G04 #@! TD*
D11*
G04 #@! TO.C,R101*
X212725000Y-123190000D03*
D12*
X202565000Y-123190000D03*
G04 #@! TD*
G04 #@! TO.C,C403*
X121920000Y-27900000D03*
G36*
G01*
X121120000Y-24574600D02*
X122720000Y-24574600D01*
G75*
G02*
X122745400Y-24600000I0J-25400D01*
G01*
X122745400Y-26200000D01*
G75*
G02*
X122720000Y-26225400I-25400J0D01*
G01*
X121120000Y-26225400D01*
G75*
G02*
X121094600Y-26200000I0J25400D01*
G01*
X121094600Y-24600000D01*
G75*
G02*
X121120000Y-24574600I25400J0D01*
G01*
G37*
G04 #@! TD*
G04 #@! TO.C,C401*
X107950000Y-27900000D03*
G36*
G01*
X107150000Y-24574600D02*
X108750000Y-24574600D01*
G75*
G02*
X108775400Y-24600000I0J-25400D01*
G01*
X108775400Y-26200000D01*
G75*
G02*
X108750000Y-26225400I-25400J0D01*
G01*
X107150000Y-26225400D01*
G75*
G02*
X107124600Y-26200000I0J25400D01*
G01*
X107124600Y-24600000D01*
G75*
G02*
X107150000Y-24574600I25400J0D01*
G01*
G37*
G04 #@! TD*
G04 #@! TO.C,C304*
X213701000Y-37465000D03*
G36*
G01*
X210375600Y-38265000D02*
X210375600Y-36665000D01*
G75*
G02*
X210401000Y-36639600I25400J0D01*
G01*
X212001000Y-36639600D01*
G75*
G02*
X212026400Y-36665000I0J-25400D01*
G01*
X212026400Y-38265000D01*
G75*
G02*
X212001000Y-38290400I-25400J0D01*
G01*
X210401000Y-38290400D01*
G75*
G02*
X210375600Y-38265000I0J25400D01*
G01*
G37*
G04 #@! TD*
D11*
G04 #@! TO.C,U202*
X102997000Y-52070000D03*
X110617000Y-44450000D03*
X102997000Y-49530000D03*
X110617000Y-46990000D03*
X102997000Y-46990000D03*
X110617000Y-49530000D03*
X102997000Y-44450000D03*
G36*
G01*
X111442400Y-51270000D02*
X111442400Y-52870000D01*
G75*
G02*
X111417000Y-52895400I-25400J0D01*
G01*
X109817000Y-52895400D01*
G75*
G02*
X109791600Y-52870000I0J25400D01*
G01*
X109791600Y-51270000D01*
G75*
G02*
X109817000Y-51244600I25400J0D01*
G01*
X111417000Y-51244600D01*
G75*
G02*
X111442400Y-51270000I0J-25400D01*
G01*
G37*
G04 #@! TD*
D23*
G04 #@! TO.C,Y801*
X133985000Y-105664000D03*
X133985000Y-107564000D03*
G04 #@! TD*
D11*
G04 #@! TO.C,U1001*
X123190000Y-134620000D03*
X130810000Y-116840000D03*
X123190000Y-132080000D03*
X130810000Y-119380000D03*
X123190000Y-129540000D03*
X130810000Y-121920000D03*
X123190000Y-127000000D03*
X130810000Y-124460000D03*
X123190000Y-124460000D03*
X130810000Y-127000000D03*
X123190000Y-121920000D03*
X130810000Y-129540000D03*
X123190000Y-119380000D03*
X130810000Y-132080000D03*
X123190000Y-116840000D03*
G36*
G01*
X131635400Y-133820000D02*
X131635400Y-135420000D01*
G75*
G02*
X131610000Y-135445400I-25400J0D01*
G01*
X130010000Y-135445400D01*
G75*
G02*
X129984600Y-135420000I0J25400D01*
G01*
X129984600Y-133820000D01*
G75*
G02*
X130010000Y-133794600I25400J0D01*
G01*
X131610000Y-133794600D01*
G75*
G02*
X131635400Y-133820000I0J-25400D01*
G01*
G37*
G04 #@! TD*
G04 #@! TO.C,U801*
X123190000Y-107950000D03*
X130810000Y-100330000D03*
X123190000Y-105410000D03*
X130810000Y-102870000D03*
X123190000Y-102870000D03*
X130810000Y-105410000D03*
X123190000Y-100330000D03*
G36*
G01*
X131635400Y-107150000D02*
X131635400Y-108750000D01*
G75*
G02*
X131610000Y-108775400I-25400J0D01*
G01*
X130010000Y-108775400D01*
G75*
G02*
X129984600Y-108750000I0J25400D01*
G01*
X129984600Y-107150000D01*
G75*
G02*
X130010000Y-107124600I25400J0D01*
G01*
X131610000Y-107124600D01*
G75*
G02*
X131635400Y-107150000I0J-25400D01*
G01*
G37*
G04 #@! TD*
D24*
G04 #@! TO.C,U401*
X114300000Y-29210000D03*
X114300000Y-26670000D03*
G36*
G01*
X113300000Y-23152100D02*
X115300000Y-23152100D01*
G75*
G02*
X115325400Y-23177500I0J-25400D01*
G01*
X115325400Y-25082500D01*
G75*
G02*
X115300000Y-25107900I-25400J0D01*
G01*
X113300000Y-25107900D01*
G75*
G02*
X113274600Y-25082500I0J25400D01*
G01*
X113274600Y-23177500D01*
G75*
G02*
X113300000Y-23152100I25400J0D01*
G01*
G37*
G04 #@! TD*
D11*
G04 #@! TO.C,U201*
X118110000Y-52070000D03*
X125730000Y-36830000D03*
X118110000Y-49530000D03*
X125730000Y-39370000D03*
X118110000Y-46990000D03*
X125730000Y-41910000D03*
X118110000Y-44450000D03*
X125730000Y-44450000D03*
X118110000Y-41910000D03*
X125730000Y-46990000D03*
X118110000Y-39370000D03*
X125730000Y-49530000D03*
X118110000Y-36830000D03*
G36*
G01*
X126555400Y-51270000D02*
X126555400Y-52870000D01*
G75*
G02*
X126530000Y-52895400I-25400J0D01*
G01*
X124930000Y-52895400D01*
G75*
G02*
X124904600Y-52870000I0J25400D01*
G01*
X124904600Y-51270000D01*
G75*
G02*
X124930000Y-51244600I25400J0D01*
G01*
X126530000Y-51244600D01*
G75*
G02*
X126555400Y-51270000I0J-25400D01*
G01*
G37*
G04 #@! TD*
G04 #@! TO.C,RN102*
X165100000Y-24130000D03*
X167640000Y-24130000D03*
X170180000Y-24130000D03*
X172720000Y-24130000D03*
X175260000Y-24130000D03*
X177800000Y-24130000D03*
X180340000Y-24130000D03*
X182880000Y-24130000D03*
G36*
G01*
X186245400Y-23330000D02*
X186245400Y-24930000D01*
G75*
G02*
X186220000Y-24955400I-25400J0D01*
G01*
X184620000Y-24955400D01*
G75*
G02*
X184594600Y-24930000I0J25400D01*
G01*
X184594600Y-23330000D01*
G75*
G02*
X184620000Y-23304600I25400J0D01*
G01*
X186220000Y-23304600D01*
G75*
G02*
X186245400Y-23330000I0J-25400D01*
G01*
G37*
G04 #@! TD*
G04 #@! TO.C,RN101*
X165100000Y-84455000D03*
X167640000Y-84455000D03*
X170180000Y-84455000D03*
X172720000Y-84455000D03*
X175260000Y-84455000D03*
X177800000Y-84455000D03*
X180340000Y-84455000D03*
X182880000Y-84455000D03*
G36*
G01*
X186245400Y-83655000D02*
X186245400Y-85255000D01*
G75*
G02*
X186220000Y-85280400I-25400J0D01*
G01*
X184620000Y-85280400D01*
G75*
G02*
X184594600Y-85255000I0J25400D01*
G01*
X184594600Y-83655000D01*
G75*
G02*
X184620000Y-83629600I25400J0D01*
G01*
X186220000Y-83629600D01*
G75*
G02*
X186245400Y-83655000I0J-25400D01*
G01*
G37*
G04 #@! TD*
D15*
G04 #@! TO.C,J701*
X210820000Y-66675000D03*
X210820000Y-69215000D03*
X208280000Y-66675000D03*
X208280000Y-69215000D03*
X205740000Y-66675000D03*
G36*
G01*
X206590000Y-70090400D02*
X204890000Y-70090400D01*
G75*
G02*
X204864600Y-70065000I0J25400D01*
G01*
X204864600Y-68365000D01*
G75*
G02*
X204890000Y-68339600I25400J0D01*
G01*
X206590000Y-68339600D01*
G75*
G02*
X206615400Y-68365000I0J-25400D01*
G01*
X206615400Y-70065000D01*
G75*
G02*
X206590000Y-70090400I-25400J0D01*
G01*
G37*
G04 #@! TD*
D25*
G04 #@! TO.C,J401*
X78570000Y-21940000D03*
X78570000Y-33980000D03*
D26*
X81280000Y-29210000D03*
X81280000Y-26710000D03*
X83280000Y-26710000D03*
G36*
G01*
X84155400Y-28360000D02*
X84155400Y-30060000D01*
G75*
G02*
X84130000Y-30085400I-25400J0D01*
G01*
X82430000Y-30085400D01*
G75*
G02*
X82404600Y-30060000I0J25400D01*
G01*
X82404600Y-28360000D01*
G75*
G02*
X82430000Y-28334600I25400J0D01*
G01*
X84130000Y-28334600D01*
G75*
G02*
X84155400Y-28360000I0J-25400D01*
G01*
G37*
G04 #@! TD*
D15*
G04 #@! TO.C,J302*
X211836000Y-29845000D03*
X209296000Y-29845000D03*
G36*
G01*
X207606000Y-30720400D02*
X205906000Y-30720400D01*
G75*
G02*
X205880600Y-30695000I0J25400D01*
G01*
X205880600Y-28995000D01*
G75*
G02*
X205906000Y-28969600I25400J0D01*
G01*
X207606000Y-28969600D01*
G75*
G02*
X207631400Y-28995000I0J-25400D01*
G01*
X207631400Y-30695000D01*
G75*
G02*
X207606000Y-30720400I-25400J0D01*
G01*
G37*
G04 #@! TD*
D27*
G04 #@! TO.C,J301*
X227330000Y-34290000D03*
X232830000Y-34290000D03*
X235230000Y-32290000D03*
G04 #@! TD*
G04 #@! TO.C,J102*
G36*
G01*
X176950000Y-93104600D02*
X178650000Y-93104600D01*
G75*
G02*
X178675400Y-93130000I0J-25400D01*
G01*
X178675400Y-94830000D01*
G75*
G02*
X178650000Y-94855400I-25400J0D01*
G01*
X176950000Y-94855400D01*
G75*
G02*
X176924600Y-94830000I0J25400D01*
G01*
X176924600Y-93130000D01*
G75*
G02*
X176950000Y-93104600I25400J0D01*
G01*
G37*
D15*
X177800000Y-96520000D03*
X175260000Y-93980000D03*
X175260000Y-96520000D03*
X172720000Y-93980000D03*
X172720000Y-96520000D03*
X170180000Y-93980000D03*
X170180000Y-96520000D03*
X167640000Y-93980000D03*
X167640000Y-96520000D03*
X165100000Y-93980000D03*
X165100000Y-96520000D03*
G04 #@! TD*
D17*
G04 #@! TO.C,H104*
X226446000Y-41020000D03*
G04 #@! TD*
G04 #@! TO.C,H103*
X81960000Y-135220000D03*
G04 #@! TD*
G04 #@! TO.C,H102*
X82196000Y-41020000D03*
G04 #@! TD*
G04 #@! TO.C,H101*
X226446000Y-135220000D03*
G04 #@! TD*
D19*
G04 #@! TO.C,D501*
X234950000Y-124460000D03*
G36*
G01*
X235850000Y-127925400D02*
X234050000Y-127925400D01*
G75*
G02*
X234024600Y-127900000I0J25400D01*
G01*
X234024600Y-126100000D01*
G75*
G02*
X234050000Y-126074600I25400J0D01*
G01*
X235850000Y-126074600D01*
G75*
G02*
X235875400Y-126100000I0J-25400D01*
G01*
X235875400Y-127900000D01*
G75*
G02*
X235850000Y-127925400I-25400J0D01*
G01*
G37*
G04 #@! TD*
D28*
G04 #@! TO.C,D401*
X96520000Y-20320000D03*
G36*
G01*
X97720000Y-34245400D02*
X95320000Y-34245400D01*
G75*
G02*
X95294600Y-34220000I0J25400D01*
G01*
X95294600Y-31820000D01*
G75*
G02*
X95320000Y-31794600I25400J0D01*
G01*
X97720000Y-31794600D01*
G75*
G02*
X97745400Y-31820000I0J-25400D01*
G01*
X97745400Y-34220000D01*
G75*
G02*
X97720000Y-34245400I-25400J0D01*
G01*
G37*
G04 #@! TD*
D11*
G04 #@! TO.C,D201*
X114300000Y-36830000D03*
G36*
G01*
X115100000Y-45275400D02*
X113500000Y-45275400D01*
G75*
G02*
X113474600Y-45250000I0J25400D01*
G01*
X113474600Y-43650000D01*
G75*
G02*
X113500000Y-43624600I25400J0D01*
G01*
X115100000Y-43624600D01*
G75*
G02*
X115125400Y-43650000I0J-25400D01*
G01*
X115125400Y-45250000D01*
G75*
G02*
X115100000Y-45275400I-25400J0D01*
G01*
G37*
G04 #@! TD*
D12*
G04 #@! TO.C,C703*
X200660000Y-86400000D03*
X200660000Y-88900000D03*
G04 #@! TD*
G04 #@! TO.C,C1005*
X134620000Y-129500000D03*
X134620000Y-127000000D03*
G04 #@! TD*
G04 #@! TO.C,C1004*
X134620000Y-119340000D03*
X134620000Y-116840000D03*
G04 #@! TD*
G04 #@! TO.C,C1003*
X134620000Y-121960000D03*
X134620000Y-124460000D03*
G04 #@! TD*
G04 #@! TO.C,C1002*
X134620000Y-134580000D03*
X134620000Y-132080000D03*
G04 #@! TD*
G04 #@! TO.C,C1001*
X119380000Y-134620000D03*
X119380000Y-132120000D03*
G04 #@! TD*
G04 #@! TO.C,C803*
X119380000Y-105450000D03*
X119380000Y-107950000D03*
G04 #@! TD*
G04 #@! TO.C,C802*
X134620000Y-100370000D03*
X134620000Y-102870000D03*
G04 #@! TD*
G04 #@! TO.C,C801*
X134620000Y-110490000D03*
X134620000Y-112990000D03*
G04 #@! TD*
G04 #@! TO.C,C701*
X200660000Y-91440000D03*
X200660000Y-93940000D03*
G04 #@! TD*
G04 #@! TO.C,C702*
X215900000Y-91440000D03*
X215900000Y-93940000D03*
G04 #@! TD*
G04 #@! TO.C,C609*
X113625000Y-92710000D03*
X111125000Y-92710000D03*
G04 #@! TD*
G04 #@! TO.C,C608*
X113625000Y-90170000D03*
X111125000Y-90170000D03*
G04 #@! TD*
G04 #@! TO.C,C607*
X113665000Y-87630000D03*
X111165000Y-87630000D03*
G04 #@! TD*
G04 #@! TO.C,C606*
X113625000Y-85090000D03*
X111125000Y-85090000D03*
G04 #@! TD*
G04 #@! TO.C,C605*
X113625000Y-82550000D03*
X111125000Y-82550000D03*
G04 #@! TD*
G04 #@! TO.C,C604*
X113625000Y-80010000D03*
X111125000Y-80010000D03*
G04 #@! TD*
G04 #@! TO.C,C603*
X113625000Y-77470000D03*
X111125000Y-77470000D03*
G04 #@! TD*
G04 #@! TO.C,C602*
X113665000Y-74930000D03*
X111165000Y-74930000D03*
G04 #@! TD*
G04 #@! TO.C,C601*
X129540000Y-69890000D03*
X129540000Y-72390000D03*
G04 #@! TD*
G04 #@! TO.C,C501*
X227878000Y-141986000D03*
X230378000Y-141986000D03*
G04 #@! TD*
G04 #@! TO.C,C402*
X101600000Y-25440000D03*
X101600000Y-27940000D03*
G04 #@! TD*
G04 #@! TO.C,C302*
X201636000Y-31750000D03*
X199136000Y-31750000D03*
G04 #@! TD*
G04 #@! TO.C,C301*
X201636000Y-27940000D03*
X199136000Y-27940000D03*
G04 #@! TD*
G04 #@! TO.C,C201*
X114300000Y-49570000D03*
X114300000Y-52070000D03*
G04 #@! TD*
D29*
G36*
X233503132Y-139429400D02*
G01*
X233503400Y-139430400D01*
X233503400Y-139502507D01*
X233505810Y-139526982D01*
X233512924Y-139550432D01*
X233524474Y-139572042D01*
X233540018Y-139590982D01*
X233558958Y-139606526D01*
X233580568Y-139618076D01*
X233604018Y-139625190D01*
X233628595Y-139627610D01*
X233630221Y-139628775D01*
X233630025Y-139630765D01*
X233628399Y-139631600D01*
X233410600Y-139631600D01*
X233408868Y-139630600D01*
X233408600Y-139629600D01*
X233408600Y-139557493D01*
X233406190Y-139533018D01*
X233399076Y-139509568D01*
X233387526Y-139487958D01*
X233371982Y-139469018D01*
X233353042Y-139453474D01*
X233331432Y-139441924D01*
X233307982Y-139434810D01*
X233283405Y-139432390D01*
X233281779Y-139431225D01*
X233281975Y-139429235D01*
X233283601Y-139428400D01*
X233501400Y-139428400D01*
X233503132Y-139429400D01*
G37*
G36*
X235502332Y-129028600D02*
G01*
X235502600Y-129029600D01*
X235502600Y-130080400D01*
X235501600Y-130082132D01*
X235500600Y-130082400D01*
X235453493Y-130082400D01*
X235429018Y-130084810D01*
X235405568Y-130091924D01*
X235383958Y-130103474D01*
X235365018Y-130119018D01*
X235349474Y-130137958D01*
X235337924Y-130159568D01*
X235330810Y-130183018D01*
X235328390Y-130207595D01*
X235327225Y-130209221D01*
X235325235Y-130209025D01*
X235324400Y-130207399D01*
X235324400Y-129054600D01*
X235325400Y-129052868D01*
X235326400Y-129052600D01*
X235373507Y-129052600D01*
X235397982Y-129050190D01*
X235421432Y-129043076D01*
X235443042Y-129031526D01*
X235447272Y-129028054D01*
X235448541Y-129027600D01*
X235500600Y-129027600D01*
X235502332Y-129028600D01*
G37*
G36*
X236153390Y-129852405D02*
G01*
X236155810Y-129876982D01*
X236162924Y-129900432D01*
X236174474Y-129922042D01*
X236190018Y-129940982D01*
X236208958Y-129956526D01*
X236230568Y-129968076D01*
X236254018Y-129975190D01*
X236278493Y-129977600D01*
X236350600Y-129977600D01*
X236352332Y-129978600D01*
X236352600Y-129979600D01*
X236352600Y-130207399D01*
X236351600Y-130209131D01*
X236349600Y-130209131D01*
X236348610Y-130207595D01*
X236346190Y-130183018D01*
X236339076Y-130159568D01*
X236327526Y-130137958D01*
X236311982Y-130119018D01*
X236293042Y-130103474D01*
X236271432Y-130091924D01*
X236247982Y-130084810D01*
X236223507Y-130082400D01*
X236151400Y-130082400D01*
X236149668Y-130081400D01*
X236149400Y-130080400D01*
X236149400Y-129852601D01*
X236150400Y-129850869D01*
X236152400Y-129850869D01*
X236153390Y-129852405D01*
G37*
M02*
