%FSLAX46Y46*%
%MOMM*%
%LPD*%
%ADD10C,0.06*%

G36*
X169550000Y-121775000D02*
G01*
X165106631Y-121775000D01*
X165081289Y-121773964D01*
X165058870Y-121777479D01*
X165036289Y-121779703D01*
X165027308Y-121782427D01*
X165018043Y-121783880D01*
X164996744Y-121791699D01*
X164975026Y-121798287D01*
X164966755Y-121802708D01*
X164957945Y-121805942D01*
X164938574Y-121817771D01*
X164918566Y-121828465D01*
X164911314Y-121834416D01*
X164903307Y-121839306D01*
X164886615Y-121854687D01*
X164869079Y-121869079D01*
X164863129Y-121876329D01*
X164856228Y-121882688D01*
X164842862Y-121901023D01*
X164828465Y-121918566D01*
X164816509Y-121940935D01*
X162914118Y-125175000D01*
X162550000Y-125175000D01*
X162550000Y-120550000D01*
X169550000Y-120550000D01*
X169550000Y-121775000D01*
G37*

D10*
X177550000Y-121775000D02*
X173106631Y-121775000D01*
X173081289Y-121773964D01*
X173058870Y-121777479D01*
X173036289Y-121779703D01*
X173027308Y-121782427D01*
X173018043Y-121783880D01*
X172996744Y-121791699D01*
X172975026Y-121798287D01*
X172966755Y-121802708D01*
X172957945Y-121805942D01*
X172938574Y-121817771D01*
X172918566Y-121828465D01*
X172911314Y-121834416D01*
X172903307Y-121839306D01*
X172886615Y-121854687D01*
X172869079Y-121869079D01*
X172863129Y-121876329D01*
X172856228Y-121882688D01*
X172842862Y-121901023D01*
X172828465Y-121918566D01*
X172816509Y-121940935D01*
X170914118Y-125175000D01*
X170550000Y-125175000D01*
X170550000Y-120550000D01*
X177550000Y-120550000D01*
X177550000Y-121775000D01*

M02*